Coordinates
version=1
nRows=17
nColumns=24
inDegrees=yes

Units are S.I. units (second, meters, Newtons, ...)
Angles are in degrees.

endheader
time	pelvis_tilt	pelvis_list	pelvis_rotation	pelvis_tx	pelvis_ty	pelvis_tz	hip_flexion_r	hip_adduction_r	hip_rotation_r	knee_angle_r	ankle_angle_r	subtalar_angle_r	mtp_angle_r	hip_flexion_l	hip_adduction_l	hip_rotation_l	knee_angle_l	ankle_angle_l	subtalar_angle_l	mtp_angle_l	lumbar_extension	lumbar_bending	lumbar_rotation
      1.74200000	     -0.78693441	      3.04463621	     -4.35491561	      1.28260306	      1.00614065	      0.27645240	     22.06301491	     -6.83855707	     -4.21058732	    -77.76298000	     -4.38610451	     -5.80433223	      1.55786202	     16.29499525	      3.75551781	     -7.50160436	    -19.03708949	      2.21105169	    -12.59632487	    -11.98071167	     -8.46462664	     -7.33852685	      1.93641468
      1.74616667	     -0.70807408	      2.92255315	     -4.15252015	      1.28725688	      1.00732912	      0.27589778	     22.67598852	     -6.66743781	     -4.40999136	    -77.64574854	     -3.96839338	     -5.68082607	      1.58289350	     15.75196269	      3.74085017	     -7.31804249	    -18.71366882	      2.25309576	    -12.47403127	    -11.98112931	     -8.61324587	     -7.15182702	      1.83422823
      1.75033333	     -0.52578520	      2.74017814	     -3.83464575	      1.29204548	      1.00879785	      0.27499839	     23.08125623	     -6.52544203	     -4.76605556	    -77.38724682	     -3.66360971	     -5.48277038	      1.62580151	     15.06852634	      3.72456101	     -6.94698069	    -18.35338427	      2.34621385	    -12.43164293	    -11.98319142	     -8.88422099	     -6.87574527	      1.47438270
      1.75450000	     -0.36307536	      2.59292470	     -3.57723997	      1.29678073	      1.01016976	      0.27424682	     23.53032369	     -6.39079904	     -5.05732158	    -77.12089918	     -3.31269135	     -5.39084611	      1.66378753	     14.40362533	      3.71484833	     -6.66533155	    -17.96594611	      2.34714188	    -12.42079649	    -11.98337321	     -9.12734793	     -6.63605438	      1.23856736
      1.75866667	     -0.28506260	      2.48321741	     -3.37896201	      1.30145185	      1.01131696	      0.27372080	     24.09866657	     -6.24957936	     -5.27260603	    -76.85621607	     -2.94989097	     -5.36670366	      1.68112234	     13.84203421	      3.69869657	     -6.49268283	    -17.59414971	      2.33270176	    -12.32258500	    -11.98289874	     -9.26921585	     -6.45883141	      1.10969183
      1.76283333	     -0.05374423	      2.30064675	     -3.09013873	      1.30618646	      1.01279652	      0.27287373	     24.41909096	     -6.12139604	     -5.62548526	    -76.45627527	     -2.65159416	     -5.18851011	      1.70832804	     13.09627638	      3.65888724	     -6.15225949	    -17.20420420	      2.42175867	    -12.29886313	    -11.98102608	     -9.58542066	     -6.17689440	      0.78809727
      1.76700000	      0.11143137	      2.17105540	     -2.86840418	      1.31086383	      1.01409410	      0.27223152	     24.83512412	     -6.00313117	     -5.89210825	    -76.06112114	     -2.30867412	     -5.12116289	      1.72976199	     12.41731595	      3.63985260	     -5.90952418	    -16.77869963	      2.39168107	    -12.30877968	    -11.97988189	     -9.82606353	     -5.96060304	      0.57217144
      1.77116667	      0.23262354	      2.02453393	     -2.64445970	      1.31553379	      1.01526868	      0.27161364	     25.29016580	     -5.86873333	     -6.17138574	    -75.62389460	     -1.99037247	     -5.04443993	      1.74528708	     11.80653498	      3.58626985	     -5.68974428	    -16.41073113	      2.44018214	    -12.23806016	    -11.97468663	    -10.01208060	     -5.72806459	      0.40106372
      1.77533333	      0.39656679	      1.89666686	     -2.43692638	      1.32020247	      1.01650117	      0.27102830	     25.68070085	     -5.75396585	     -6.43244948	    -75.13668072	     -1.66672890	     -4.97775044	      1.75546967	     11.13316924	      3.55173554	     -5.46354410	    -15.99568314	      2.44312155	    -12.21398805	    -11.97042250	    -10.24922055	     -5.52585958	      0.20046666
      1.77950000	      0.53077290	      1.76487473	     -2.23607516	      1.32484133	      1.01762475	      0.27047260	     26.09757742	     -5.63410244	     -6.68984554	    -74.61598261	     -1.32440938	     -4.86686701	      1.75742082	     10.50681668	      3.50088463	     -5.26076719	    -15.61217758	      2.47726533	    -12.16413314	    -11.96278922	    -10.44974843	     -5.31291200	      0.03796168
      1.78366667	      0.63398043	      1.65527462	     -2.09212335	      1.32946066	      1.01863445	      0.27006938	     26.55418070	     -5.50544080	     -6.87818953	    -74.06941992	     -0.98631809	     -4.70670614	      1.75562767	      9.91352998	      3.45071941	     -5.13418852	    -15.22553482	      2.51350479	    -12.11716025	    -11.95636199	    -10.59969736	     -5.13829131	     -0.06304425
      1.78783333	      0.74371679	      1.52320444	     -1.91768640	      1.33408030	      1.01965512	      0.26961608	     26.96741464	     -5.37271891	     -7.11308484	    -73.45775237	     -0.66723299	     -4.58825048	      1.74573530	      9.31769985	      3.37956792	     -4.97017326	    -14.84958624	      2.55212851	    -12.05815555	    -11.94744866	    -10.76697103	     -4.92849126	     -0.20168083
      1.79200000	      0.75542910	      1.45139824	     -1.81703790	      1.33866479	      1.02040720	      0.26936982	     27.51724262	     -5.25587211	     -7.25472872	    -72.85716342	     -0.31075983	     -4.53638612	      1.74197959	      8.83309880	      3.34637187	     -4.88993421	    -14.46940197	      2.54963703	    -11.99694351	    -11.94428069	    -10.81531488	     -4.80000883	     -0.25656275
      1.79616667	      0.93795790	      1.31164010	     -1.60724060	      1.34330358	      1.02151064	      0.26881144	     27.79210293	     -5.15739190	     -7.54069274	    -72.12978692	     -0.01241165	     -4.34713329	      1.71415748	      8.15703456	      3.27639959	     -4.66880760	    -14.08269914	      2.60432455	    -11.97412085	    -11.92792565	    -11.06488348	     -4.58803179	     -0.43312685
      1.80033333	      0.97960580	      1.21876277	     -1.49452968	      1.34788128	      1.02225794	      0.26850874	     28.26021726	     -5.04148395	     -7.70542300	    -71.41610456	      0.29053977	     -4.17053298	      1.69392042	      7.64769126	      3.22217364	     -4.57581216	    -13.72294848	      2.65033038	    -11.93223459	    -11.91745491	    -11.14986981	     -4.41519957	     -0.51814623
      1.80450000	      1.07105452	      1.12228884	     -1.33739535	      1.35245032	      1.02306444	      0.26811771	     28.63406936	     -4.95366625	     -7.92388391	    -70.64897155	      0.61715250	     -4.04035270	      1.65316158	      7.09183643	      3.17303917	     -4.41032521	    -13.37626079	      2.68334249	    -11.90770932	    -11.90005389	    -11.29062976	     -4.25221554	     -0.62867243
      1.80866667	      1.03507657	      1.06525674	     -1.26686270	      1.35698037	      1.02357603	      0.26798644	     29.17453011	     -4.83951025	     -8.02624338	    -69.87523833	      0.91681611	     -3.91130206	      1.64314607	      6.68050383	      3.13630399	     -4.35882198	    -13.03216270	      2.70303325	    -11.85872766	    -11.89426874	    -11.28367555	     -4.15201433	     -0.66104534
